<svg xmlns="http://www.w3.org/2000/svg" width="17.916" height="16.124" viewBox="0 0 17.916 16.124">
  <path id="conveyor_belt_FILL0_wght400_GRAD0_opsz24" d="M82.687-823.876a2.591,2.591,0,0,1-1.9-.784,2.592,2.592,0,0,1-.784-1.9,2.592,2.592,0,0,1,.784-1.9,2.591,2.591,0,0,1,1.9-.784H95.229a2.591,2.591,0,0,1,1.9.784,2.592,2.592,0,0,1,.784,1.9,2.592,2.592,0,0,1-.784,1.9,2.591,2.591,0,0,1-1.9.784Zm0-1.792H95.229a.867.867,0,0,0,.638-.257.867.867,0,0,0,.258-.638.867.867,0,0,0-.258-.638.867.867,0,0,0-.638-.257H82.687a.867.867,0,0,0-.638.257.867.867,0,0,0-.258.638.867.867,0,0,0,.258.638A.867.867,0,0,0,82.687-825.667Zm4.479-5.375a.867.867,0,0,1-.638-.258.867.867,0,0,1-.258-.638V-839.1a.867.867,0,0,1,.258-.638.867.867,0,0,1,.638-.258h7.166a.867.867,0,0,1,.638.258.867.867,0,0,1,.258.638v7.166a.867.867,0,0,1-.258.638.867.867,0,0,1-.638.258Zm.9-1.792h5.375v-5.375H88.062ZM80-832.878V-834.6h4.412v1.724Zm8.958-2.643h3.583v-1.769H88.958Zm-7.166,0h2.62v-1.769h-2.62Zm6.271,2.688v0Z" transform="translate(-80 840)" fill="#fff"/>
</svg>
