<svg xmlns="http://www.w3.org/2000/svg" width="18.5" height="18.5" viewBox="0 0 18.5 18.5">
  <path id="language_FILL0_wght400_GRAD0_opsz24" d="M89-862a8.71,8.71,0,0,1-3.488-.709,9.129,9.129,0,0,1-2.869-1.935,9.13,9.13,0,0,1-1.935-2.869A8.708,8.708,0,0,1,80-871a8.684,8.684,0,0,1,.709-3.5,9.163,9.163,0,0,1,1.935-2.858,9.128,9.128,0,0,1,2.869-1.935A8.71,8.71,0,0,1,89-880a8.685,8.685,0,0,1,3.5.709,9.164,9.164,0,0,1,2.857,1.935,9.163,9.163,0,0,1,1.935,2.858A8.684,8.684,0,0,1,98-871a8.708,8.708,0,0,1-.709,3.487,9.13,9.13,0,0,1-1.935,2.869,9.165,9.165,0,0,1-2.857,1.935A8.685,8.685,0,0,1,89-862Zm0-1.845a11.43,11.43,0,0,0,1.012-1.687,10.654,10.654,0,0,0,.7-1.867H87.29a10.654,10.654,0,0,0,.7,1.867A11.43,11.43,0,0,0,89-863.845Zm-2.34-.36a12.464,12.464,0,0,1-.709-1.541,13.218,13.218,0,0,1-.506-1.654H82.79a7.469,7.469,0,0,0,1.631,1.957A6.475,6.475,0,0,0,86.66-864.205Zm4.68,0a6.475,6.475,0,0,0,2.239-1.237A7.469,7.469,0,0,0,95.21-867.4H92.555a13.218,13.218,0,0,1-.506,1.654A12.464,12.464,0,0,1,91.34-864.205ZM82.025-869.2h3.06q-.067-.45-.1-.889T84.95-871q0-.473.034-.911t.1-.889h-3.06a7.7,7.7,0,0,0-.169.889A7.164,7.164,0,0,0,81.8-871a7.164,7.164,0,0,0,.056.911A7.7,7.7,0,0,0,82.025-869.2Zm4.86,0h4.23q.068-.45.1-.889T91.25-871q0-.473-.034-.911t-.1-.889h-4.23q-.068.45-.1.889T86.75-871q0,.473.034.911T86.885-869.2Zm6.03,0h3.06a7.7,7.7,0,0,0,.169-.889A7.164,7.164,0,0,0,96.2-871a7.164,7.164,0,0,0-.056-.911,7.7,7.7,0,0,0-.169-.889h-3.06q.067.45.1.889t.034.911q0,.473-.034.911T92.915-869.2Zm-.36-5.4H95.21a7.47,7.47,0,0,0-1.631-1.957,6.475,6.475,0,0,0-2.239-1.237,12.469,12.469,0,0,1,.709,1.541A13.224,13.224,0,0,1,92.555-874.6Zm-5.265,0h3.42a10.651,10.651,0,0,0-.7-1.867A11.424,11.424,0,0,0,89-878.155a11.423,11.423,0,0,0-1.012,1.688A10.651,10.651,0,0,0,87.29-874.6Zm-4.5,0h2.655a13.224,13.224,0,0,1,.506-1.654,12.469,12.469,0,0,1,.709-1.541,6.475,6.475,0,0,0-2.239,1.237A7.47,7.47,0,0,0,82.79-874.6Z" transform="translate(-79.75 880.25)" fill="#fff" stroke="#070808" stroke-linejoin="round" stroke-width="0.5"/>
</svg>
