<svg xmlns="http://www.w3.org/2000/svg" xmlns:xlink="http://www.w3.org/1999/xlink" width="613.492" height="186" viewBox="0 0 613.492 186">
  <defs>
    <clipPath id="clip-path">
      <path id="Tracé_5" data-name="Tracé 5" d="M0,92a92.224,92.224,0,1,1,1.9,18.6A89.641,89.641,0,0,1,0,92Z"/>
    </clipPath>
  </defs>
  <g id="logoheadboard" transform="translate(-1145.803 -188.7)">
    <g id="Logo-BG-Approve" transform="translate(1143.21 183.265)">
      <g id="Groupe_6" transform="translate(2.593 6.912)">
        <circle id="b" cx="92.2" cy="92.2" r="92.2" transform="translate(0 0)" fill="#004b93"/>
        <g id="c" transform="translate(0 0.197)">
          <g id="Groupe_6-2" data-name="Groupe 6">
            <g id="Groupe_5" data-name="Groupe 5">
              <g id="Groupe_5-2" data-name="Groupe_5" clip-path="url(#clip-path)">
                <rect id="Rectangle_2" width="200.8" height="129.8" transform="translate(-11.7 -31.4)" fill="#0094cd"/>
                <g id="Groupe_4" transform="translate(36.627 22.379)">
                  <path id="Tracé_4" d="M64.8.7A55.741,55.741,0,0,1,92.6,13.6c-2.4,2.2-4.7,4.4-6.9,6.7a46.311,46.311,0,1,0,15.9,26.6,93.534,93.534,0,0,1,8.6-5.2A55.994,55.994,0,1,1,41.8,1.8,57.4,57.4,0,0,1,64.8.7" fill="#004b93" fill-rule="evenodd"/>
                  <path id="Tracé_5-2" data-name="Tracé_5" d="M24.1,43.9a56.909,56.909,0,0,1,22.3-9.6c5.3,8.3,9.6,19.5,10.4,26.9C74.7,38.2,97,9.5,118.1,5.3A92.968,92.968,0,0,0,112,35.7C89.4,42.3,67.8,68.2,52.9,85.4,47.6,71.4,38,50.8,24.1,43.9" fill="#fff" fill-rule="evenodd"/>
                </g>
              </g>
            </g>
          </g>
        </g>
        <text id="A" transform="translate(38.813 157.162)" fill="#fff" font-size="70" font-family="Young"><tspan x="0" y="0">A</tspan></text>
        <text id="P" transform="translate(88.582 157.162)" fill="#fff" font-size="70" font-family="Young"><tspan x="0" y="0">P</tspan></text>
      </g>
    </g>
    <g id="b-2" transform="translate(1146.477 189.177)">
      <g id="Groupe_11" transform="translate(-0.477 -0.477)">
        <g id="Groupe_10">
          <circle id="Ellipse_1" cx="93" cy="93" r="93" fill="#004b93"/>
        </g>
      </g>
      <text id="C-2" data-name="C" transform="translate(66.492 83.084)" fill="#004b93" font-size="69" font-family="ArialMT, Arial"><tspan x="0" y="0">C</tspan></text>
      <path id="C_-_Contour" d="M92.6,84.5c-7.1,0-12.8-2.3-17-6.8s-6.4-10.5-6.4-17.8c0-7.8,2.4-14.3,7.2-19.1a24.426,24.426,0,0,1,18.2-7.3,31,31,0,0,1,11.7,2l.3.1V43l-.8-.5a22.3,22.3,0,0,0-11.3-2.8,17.218,17.218,0,0,0-13.2,5.4c-3.4,3.6-5.1,8.5-5.1,14.5,0,5.7,1.6,10.3,4.7,13.7a16.452,16.452,0,0,0,12.4,5.1,23.683,23.683,0,0,0,12.4-3.2l.8-.5v6.8l-.3.2a28.914,28.914,0,0,1-13.6,2.8Z" fill="#004b93"/>
    </g>
    <g id="Groupe_3_00000044173411365171947100000011404991450131516350_" transform="translate(1146.95 -46.839)">
      <g id="Groupe_577_00000144306934755304177400000016050775464541259934_" transform="translate(233 236.016)">
        <g id="Groupe_478_00000114060838900510665980000015920663946271648178_">
          <g id="Groupe_474_00000050633456676811891110000014879606117788995493_" transform="translate(2.163)">
            <path id="Tracé_1192_00000141418014828592517650000009631049158625642123_" d="M-72.1,50.7H-85.4l-.3.9-1.2,5.8-.3.9-.6,3.2v.9l-.6,1.7-.3,1.2h9.5a7.306,7.306,0,0,0,6.3-5.2h0l.9-3.5V56l.9-4,.3-1.2h-1.3Z" fill="#fff"/>
            <path id="Tracé_1193_00000123424148150368242250000006113683139673894786_" d="M-84.3,67.7H-88l-12.1,57.5h4A10.76,10.76,0,0,0-86,116.8l10.4-49.1Z" fill="#fff"/>
            <path id="Tracé_1194_00000134941566436665319370000004919200511559389623_" d="M-174.1,115.6l14.7-31.5-8.6,41h11.9L-146,77.7a8.989,8.989,0,0,0-1.2-7.8,8.318,8.318,0,0,0-7.2-2.9,13.818,13.818,0,0,0-3.5.3,11.47,11.47,0,0,0-8.6,7.2l-15,30.9-.2-30.9a7.045,7.045,0,0,0-5.8-7.3,11.264,11.264,0,0,0-3.2-.2,13.589,13.589,0,0,0-8.4,2.9,13.664,13.664,0,0,0-4.6,7.8l-10.1,47.4h11.9l8.6-41,1.2,30.6.3,4c0,.9.3,2.1.3,2.9.6,2.9,3.2,5.2,6.1,4.9a8.693,8.693,0,0,0,7.8-4.4l.3-.3a35.293,35.293,0,0,0,2.1-3.2Z" fill="#fff"/>
            <path id="Tracé_1195_00000163790226341870395400000004904538529260741796_" d="M-146.4,115.6a9.55,9.55,0,0,0,.3,2.9,5.755,5.755,0,0,0,3.2,4.6,16.149,16.149,0,0,0,8.6,2.1h14.2a14.335,14.335,0,0,0,13-7,19.478,19.478,0,0,0,2.6-7.8l3.7-18.2h-13.9l-1.4,6.3h1.4l-2.3,11.2v.3c-.6,1.7-2.1,2.6-4.6,2.6h-9.8a2.527,2.527,0,0,1-2.1-2.1v-.3l6.1-28a3.217,3.217,0,0,1,2.9-2.3h22.8l2.6-12.4h-23.4a18.513,18.513,0,0,0-11.6,3.3,20.256,20.256,0,0,0-5.5,11s-6.3,30.3-6.6,31.5a19.529,19.529,0,0,0-.2,2.3Z" fill="#fff"/>
          </g>
          <path id="Tracé_1451_00000033332645504316986670000017472973682299043467_" d="M-213.5,88.2" fill="#fff"/>
        </g>
      </g>
    </g>
    <path id="Tracé_3" data-name="Tracé 3" d="M49.453,0H42.891V-25.547H13.906V0H7.344V-56.016h6.563v24.57H42.891v-24.57h6.563ZM95.43-18.4H67.188q.156,6.68,3.594,10.313t9.453,3.633A19.654,19.654,0,0,0,92.656-8.906v6.016Q87.383.937,78.711.938q-8.477,0-13.32-5.449T60.547-19.844q0-9.336,5.293-15.215a16.971,16.971,0,0,1,13.145-5.879q7.852,0,12.148,5.078t4.3,14.1Zm-6.562-5.43q-.039-5.547-2.676-8.633a9.117,9.117,0,0,0-7.324-3.086,10.348,10.348,0,0,0-7.7,3.242,14.713,14.713,0,0,0-3.906,8.477ZM133.75,0h-6.406V-6.25h-.156a13.412,13.412,0,0,1-12.3,7.188q-5.977,0-9.355-3.164a10.962,10.962,0,0,1-3.379-8.4q0-11.211,13.2-13.047l11.992-1.68q0-10.2-8.242-10.2a19.692,19.692,0,0,0-13.047,4.922v-6.562a24.789,24.789,0,0,1,13.594-3.75q14.1,0,14.1,14.922Zm-6.406-20.234L117.7-18.906a15.665,15.665,0,0,0-6.719,2.207q-2.266,1.582-2.266,5.605a6.105,6.105,0,0,0,2.09,4.785,8.076,8.076,0,0,0,5.566,1.855,10.282,10.282,0,0,0,7.871-3.34,11.933,11.933,0,0,0,3.105-8.457ZM179.961,0h-6.406V-6.8H173.4Q168.945.938,159.648.938A14.94,14.94,0,0,1,147.6-4.434q-4.512-5.371-4.512-14.629,0-9.922,5-15.9a16.491,16.491,0,0,1,13.32-5.977q8.242,0,11.992,6.484h.156V-59.219h6.406Zm-6.406-18.086v-5.9a11.443,11.443,0,0,0-3.2-8.2,10.743,10.743,0,0,0-8.125-3.359,11.062,11.062,0,0,0-9.219,4.3q-3.359,4.3-3.359,11.875,0,6.914,3.223,10.918a10.533,10.533,0,0,0,8.652,4,10.941,10.941,0,0,0,8.691-3.867A14.408,14.408,0,0,0,173.555-18.086Zm25.938,12.3h-.156V0H192.93V-59.219h6.406v26.25h.156a15.148,15.148,0,0,1,13.828-7.969q7.7,0,12.051,5.371t4.355,14.395q0,10.039-4.883,16.074T211.484.938A13.157,13.157,0,0,1,199.492-5.781Zm-.156-16.133v5.586a11.893,11.893,0,0,0,3.223,8.418,10.7,10.7,0,0,0,8.184,3.457,10.723,10.723,0,0,0,9.121-4.453q3.3-4.453,3.3-12.383,0-6.68-3.086-10.469a10.213,10.213,0,0,0-8.359-3.789,11.35,11.35,0,0,0-8.984,3.887A14.271,14.271,0,0,0,199.336-21.914ZM256.68.938q-8.867,0-14.16-5.605t-5.293-14.863q0-10.078,5.508-15.742t14.883-5.664q8.945,0,13.965,5.508t5.02,15.273q0,9.57-5.41,15.332T256.68.938Zm.469-36.484a12.185,12.185,0,0,0-9.766,4.2q-3.594,4.2-3.594,11.582,0,7.109,3.633,11.211a12.346,12.346,0,0,0,9.727,4.1q6.211,0,9.551-4.023t3.34-11.445q0-7.5-3.34-11.562T257.148-35.547ZM315.469,0h-6.406V-6.25h-.156A13.412,13.412,0,0,1,296.6.938q-5.977,0-9.355-3.164a10.962,10.962,0,0,1-3.379-8.4q0-11.211,13.2-13.047l11.992-1.68q0-10.2-8.242-10.2a19.692,19.692,0,0,0-13.047,4.922v-6.562a24.789,24.789,0,0,1,13.594-3.75q14.1,0,14.1,14.922Zm-6.406-20.234-9.648,1.328A15.665,15.665,0,0,0,292.7-16.7q-2.266,1.582-2.266,5.605a6.105,6.105,0,0,0,2.09,4.785,8.076,8.076,0,0,0,5.566,1.855,10.282,10.282,0,0,0,7.871-3.34,11.933,11.933,0,0,0,3.105-8.457ZM348.4-33.516a7.834,7.834,0,0,0-4.844-1.289,8.175,8.175,0,0,0-6.855,3.867q-2.754,3.867-2.754,10.547V0h-6.406V-40h6.406v8.242h.156a13.968,13.968,0,0,1,4.18-6.582A9.531,9.531,0,0,1,344.57-40.7a10.458,10.458,0,0,1,3.828.547ZM389.492,0h-6.406V-6.8h-.156Q378.477.938,369.18.938a14.94,14.94,0,0,1-12.051-5.371q-4.512-5.371-4.512-14.629,0-9.922,5-15.9a16.491,16.491,0,0,1,13.32-5.977q8.242,0,11.992,6.484h.156V-59.219h6.406Zm-6.406-18.086v-5.9a11.443,11.443,0,0,0-3.2-8.2,10.743,10.743,0,0,0-8.125-3.359,11.062,11.062,0,0,0-9.219,4.3q-3.359,4.3-3.359,11.875,0,6.914,3.223,10.918a10.533,10.533,0,0,0,8.652,4,10.941,10.941,0,0,0,8.691-3.867A14.408,14.408,0,0,0,383.086-18.086Z" transform="translate(1369.803 306.7)" fill="#fff"/>
  </g>
</svg>
