<svg xmlns="http://www.w3.org/2000/svg" width="15.241" height="12.313" viewBox="0 0 15.241 12.313">
  <g id="mail_FILL0_wght400_GRAD0_opsz24" transform="translate(-79.7 800.3)" fill="#fff" stroke-linejoin="round">
    <path d="M 93.17678833007812 -788.1373291015625 L 81.46408081054688 -788.1373291015625 C 81.02214813232422 -788.1373291015625 80.63856506347656 -788.2968139648438 80.32401275634766 -788.611328125 C 80.00948333740234 -788.9259033203125 79.85000610351562 -789.3095092773438 79.85000610351562 -789.75146484375 L 79.85000610351562 -798.5360107421875 C 79.85000610351562 -798.9779663085938 80.00948333740234 -799.3615112304688 80.32401275634766 -799.676025390625 C 80.63849639892578 -799.9905395507812 81.02207183837891 -800.1500244140625 81.46408081054688 -800.1500244140625 L 93.17678833007812 -800.1500244140625 C 93.61879730224609 -800.1500244140625 94.00238800048828 -799.9905395507812 94.31687164306641 -799.676025390625 C 94.63139343261719 -799.3615112304688 94.79087829589844 -798.9779663085938 94.79087829589844 -798.5360107421875 L 94.79087829589844 -789.75146484375 C 94.79087829589844 -789.3095092773438 94.63139343261719 -788.9259033203125 94.31687164306641 -788.611328125 C 94.00231170654297 -788.2968139648438 93.61873626708984 -788.1373291015625 93.17678833007812 -788.1373291015625 Z M 81.61408233642578 -789.9014892578125 L 93.02678680419922 -789.9014892578125 L 93.02678680419922 -796.8012084960938 L 87.39993286132812 -793.2844848632812 L 87.3204345703125 -793.2348022460938 L 87.24093627929688 -793.2844848632812 L 81.61408233642578 -796.8012084960938 L 81.61408233642578 -789.9014892578125 Z M 81.98709106445312 -798.385986328125 L 87.3204345703125 -795.0525512695312 L 92.65377807617188 -798.385986328125 L 81.98709106445312 -798.385986328125 Z" stroke="none"/>
    <path d="M 93.17678833007812 -788.287353515625 C 93.57940673828125 -788.287353515625 93.92408752441406 -788.4307250976562 94.21080780029297 -788.7174072265625 C 94.49751281738281 -789.004150390625 94.64087677001953 -789.3488159179688 94.64087677001953 -789.75146484375 L 94.64087677001953 -798.5360107421875 C 94.64087677001953 -798.9385375976562 94.49751281738281 -799.2832641601562 94.21080780029297 -799.5699462890625 C 93.92408752441406 -799.856689453125 93.57940673828125 -800 93.17678833007812 -800 L 81.46408081054688 -800 C 81.06147766113281 -800 80.716796875 -799.856689453125 80.43007659912109 -799.5699462890625 C 80.14336395263672 -799.2832641601562 80.00000762939453 -798.9385375976562 80.00000762939453 -798.5360107421875 L 80.00000762939453 -789.75146484375 C 80.00000762939453 -789.3488159179688 80.14336395263672 -789.004150390625 80.43007659912109 -788.7174072265625 C 80.716796875 -788.4307250976562 81.06147766113281 -788.287353515625 81.46408081054688 -788.287353515625 L 93.17678833007812 -788.287353515625 M 81.46408081054688 -789.75146484375 L 81.46408081054688 -798.5360107421875 L 81.46408081054688 -797.0718383789062 L 87.3204345703125 -793.4116821289062 L 93.17678833007812 -797.0718383789062 L 93.17678833007812 -789.75146484375 L 81.46408081054688 -789.75146484375 M 81.46408081054688 -798.5360107421875 L 93.17678833007812 -798.5360107421875 L 87.3204345703125 -794.8756713867188 L 81.46408081054688 -798.5360107421875 M 81.46408081054688 -789.75146484375 L 81.46408081054688 -797.0718383789062 L 81.46408081054688 -789.75146484375 M 93.17678833007812 -787.9873657226562 L 81.46408081054688 -787.9873657226562 C 80.98091125488281 -787.9873657226562 80.56166076660156 -788.16162109375 80.21795654296875 -788.5052490234375 C 79.874267578125 -788.8489990234375 79.70000457763672 -789.2682495117188 79.70000457763672 -789.75146484375 L 79.70000457763672 -798.5360107421875 C 79.70000457763672 -799.0192260742188 79.874267578125 -799.4384155273438 80.21795654296875 -799.7821044921875 C 80.56158447265625 -800.125732421875 80.98084259033203 -800.2999877929688 81.46408081054688 -800.2999877929688 L 93.17678833007812 -800.2999877929688 C 93.66002655029297 -800.2999877929688 94.07929229736328 -800.125732421875 94.42294311523438 -799.7820434570312 C 94.76661682128906 -799.4384155273438 94.94087219238281 -799.0192260742188 94.94087219238281 -798.5360107421875 L 94.94087219238281 -789.75146484375 C 94.94087219238281 -789.2682495117188 94.76661682128906 -788.8489990234375 94.42294311523438 -788.5053100585938 C 94.07921600341797 -788.16162109375 93.65995788574219 -787.9873657226562 93.17678833007812 -787.9873657226562 Z M 81.76408386230469 -790.0514526367188 L 92.87678527832031 -790.0514526367188 L 92.87678527832031 -796.5305786132812 L 87.47943115234375 -793.1572875976562 C 87.38215637207031 -793.0964965820312 87.25871276855469 -793.0964965820312 87.16143798828125 -793.1572875976562 L 81.76408386230469 -796.5305786132812 L 81.76408386230469 -790.0514526367188 Z M 82.51009368896484 -798.2360229492188 L 87.3204345703125 -795.2294311523438 L 92.13077545166016 -798.2360229492188 L 82.51009368896484 -798.2360229492188 Z" stroke="none" fill="#121212"/>
  </g>
</svg>
