<svg xmlns="http://www.w3.org/2000/svg" width="20" height="20" viewBox="0 0 20 20">
  <g id="Groupe_4" data-name="Groupe 4" transform="translate(-1088 -349)">
    <path id="more_horiz_FILL0_wght400_GRAD0_opsz24" d="M161.5-557a1.444,1.444,0,0,1-1.059-.441A1.444,1.444,0,0,1,160-558.5a1.444,1.444,0,0,1,.441-1.059A1.444,1.444,0,0,1,161.5-560a1.444,1.444,0,0,1,1.059.441A1.444,1.444,0,0,1,163-558.5a1.444,1.444,0,0,1-.441,1.059A1.444,1.444,0,0,1,161.5-557Zm4.5,0a1.444,1.444,0,0,1-1.059-.441,1.444,1.444,0,0,1-.441-1.059,1.444,1.444,0,0,1,.441-1.059A1.444,1.444,0,0,1,166-560a1.444,1.444,0,0,1,1.059.441,1.444,1.444,0,0,1,.441,1.059,1.444,1.444,0,0,1-.441,1.059A1.444,1.444,0,0,1,166-557Zm4.5,0a1.444,1.444,0,0,1-1.059-.441A1.444,1.444,0,0,1,169-558.5a1.444,1.444,0,0,1,.441-1.059A1.444,1.444,0,0,1,170.5-560a1.444,1.444,0,0,1,1.059.441A1.444,1.444,0,0,1,172-558.5a1.444,1.444,0,0,1-.441,1.059A1.444,1.444,0,0,1,170.5-557Z" transform="translate(932 918)" fill="#fff"/>
    <g id="Rectangle_91" data-name="Rectangle 91" transform="translate(1088 349)" fill="none" stroke="#fff" stroke-width="0.5">
      <rect width="20" height="20" rx="2" stroke="none"/>
      <rect x="0.25" y="0.25" width="19.5" height="19.5" rx="1.75" fill="none"/>
    </g>
  </g>
</svg>
