<svg xmlns="http://www.w3.org/2000/svg" width="17.916" height="16.124" viewBox="0 0 17.916 16.124">
  <path id="fact_check_FILL0_wght400_GRAD0_opsz24" d="M81.792-823.876a1.725,1.725,0,0,1-1.265-.526A1.725,1.725,0,0,1,80-825.667v-12.541a1.725,1.725,0,0,1,.526-1.265A1.725,1.725,0,0,1,81.792-840H96.124a1.725,1.725,0,0,1,1.265.526,1.725,1.725,0,0,1,.526,1.265v12.541a1.725,1.725,0,0,1-.526,1.265,1.725,1.725,0,0,1-1.265.526Zm0-1.792H96.124v-12.541H81.792Zm.9-1.792h4.479v-1.792H82.687Zm8.555-1.792,4.434-4.434L94.4-834.961l-3.158,3.18-1.277-1.276-1.254,1.276Zm-8.555-1.792h4.479v-1.792H82.687Zm0-3.583h4.479v-1.792H82.687Zm-.9,8.958v0Z" transform="translate(-80 840)" fill="#fff"/>
</svg>
