<svg xmlns="http://www.w3.org/2000/svg" width="21.314" height="21.315" viewBox="0 0 21.314 21.315">
  <path id="account_circle_FILL0_wght400_GRAD0_opsz24" d="M84.1-863.908a11.125,11.125,0,0,1,3.037-1.639,10.379,10.379,0,0,1,3.517-.6,10.379,10.379,0,0,1,3.517.6,11.125,11.125,0,0,1,3.037,1.639,8.236,8.236,0,0,0,1.452-2.478,8.353,8.353,0,0,0,.52-2.957,8.219,8.219,0,0,0-2.491-6.035,8.219,8.219,0,0,0-6.035-2.491,8.219,8.219,0,0,0-6.035,2.491,8.219,8.219,0,0,0-2.491,6.035,8.353,8.353,0,0,0,.52,2.957A8.236,8.236,0,0,0,84.1-863.908Zm6.554-4.37a3.6,3.6,0,0,1-2.651-1.079,3.6,3.6,0,0,1-1.079-2.651,3.6,3.6,0,0,1,1.079-2.651,3.6,3.6,0,0,1,2.651-1.079,3.6,3.6,0,0,1,2.651,1.079,3.6,3.6,0,0,1,1.079,2.651,3.6,3.6,0,0,1-1.079,2.651A3.6,3.6,0,0,1,90.657-868.277Zm0,9.592a10.376,10.376,0,0,1-4.156-.839,10.761,10.761,0,0,1-3.384-2.278,10.762,10.762,0,0,1-2.278-3.384A10.378,10.378,0,0,1,80-869.343a10.378,10.378,0,0,1,.839-4.156,10.764,10.764,0,0,1,2.278-3.384,10.762,10.762,0,0,1,3.384-2.278A10.377,10.377,0,0,1,90.657-880a10.377,10.377,0,0,1,4.156.839,10.762,10.762,0,0,1,3.384,2.278,10.763,10.763,0,0,1,2.278,3.384,10.377,10.377,0,0,1,.839,4.156,10.377,10.377,0,0,1-.839,4.156A10.762,10.762,0,0,1,98.2-861.8a10.761,10.761,0,0,1-3.384,2.278A10.376,10.376,0,0,1,90.657-858.685Zm0-2.131a8.453,8.453,0,0,0,2.664-.413,8.023,8.023,0,0,0,2.291-1.186,8.026,8.026,0,0,0-2.291-1.186,8.455,8.455,0,0,0-2.664-.413,8.455,8.455,0,0,0-2.664.413,8.026,8.026,0,0,0-2.291,1.186,8.022,8.022,0,0,0,2.291,1.186A8.453,8.453,0,0,0,90.657-860.817Zm0-9.592a1.553,1.553,0,0,0,1.146-.453,1.553,1.553,0,0,0,.453-1.146,1.552,1.552,0,0,0-.453-1.146,1.552,1.552,0,0,0-1.146-.453,1.552,1.552,0,0,0-1.146.453,1.552,1.552,0,0,0-.453,1.146,1.553,1.553,0,0,0,.453,1.146A1.553,1.553,0,0,0,90.657-870.409ZM90.657-872.007ZM90.657-862.416Z" transform="translate(-80 880)" fill="#fff"/>
</svg>
